<svg xmlns="http://www.w3.org/2000/svg" xml:space="preserve" width="5in" height="5in" version="1.1"
    style="shape-rendering:geometricPrecision; text-rendering:geometricPrecision; image-rendering:optimizeQuality; fill-rule:evenodd; clip-rule:evenodd"
    viewBox="0 0 5000 5000" xmlns:xlink="http://www.w3.org/1999/xlink"
    xmlns:xodm="http://www.corel.com/coreldraw/odm/2003">
    <defs>
        <style type="text/css">
            <![CDATA[
            .fil0 {fill:none}
            .fil1 {fill:white}
            .fil2 {fill:#161617;fill-rule:nonzero}
            ]]>
        </style>
    </defs>
    <g id="Layer_x0020_1">
        <rect class="fil0" width="5000" height="5000" />
        <rect class="fil1" width="5000" height="5000" rx="5000" ry="5000" />
        <polygon class="fil2"
            points="970.16,1455.65 2370.16,1455.65 2370.16,1850.81 1864.92,1850.81 1864.92,3533.06 1455.65,3533.06 1455.65,1850.81 970.16,1850.81 " />
        <path id="1" class="fil2"
            d="M3874.59 1958.06c-79.03,-42.34 -158.06,-79.03 -239.92,-107.26 -81.85,-28.23 -160.89,-42.34 -231.45,-42.34 -87.5,0 -158.06,16.93 -208.87,53.63 -50.81,36.7 -76.21,90.32 -76.21,160.89 0,47.98 19.76,93.15 59.27,129.84 36.69,39.52 87.5,73.39 149.6,104.43 59.28,31.05 124.19,56.45 189.11,81.85 59.27,22.58 121.37,47.98 180.64,79.04 59.28,31.05 110.08,70.56 158.07,115.72 47.98,47.98 84.68,104.44 112.9,172.18 28.22,70.56 42.34,155.24 42.34,254.03 0,104.44 -28.22,203.23 -81.85,293.55 -53.63,90.32 -135.48,163.71 -239.92,217.34 -104.44,56.45 -234.28,84.68 -389.52,84.68 -79.04,0 -158.07,-8.46 -239.92,-25.4 -81.85,-14.11 -163.71,-39.52 -242.74,-73.39 -79.04,-31.05 -155.24,-73.39 -228.63,-124.19l180.65 -318.95c47.98,36.69 101.61,67.74 160.89,93.15 56.45,28.22 112.9,50.81 172.18,64.92 59.28,14.11 112.9,22.58 160.89,22.58 47.98,0 98.79,-8.47 149.6,-22.58 47.98,-14.11 90.32,-36.69 124.19,-70.56 31.05,-33.87 47.98,-81.85 47.98,-141.13 0,-42.34 -14.11,-79.03 -39.52,-112.9 -28.22,-33.87 -64.92,-64.92 -110.08,-93.15 -47.98,-28.22 -98.79,-53.63 -152.42,-73.39 -64.92,-25.41 -129.84,-53.63 -197.58,-84.68 -67.74,-31.05 -129.84,-70.57 -189.11,-118.55 -59.28,-45.16 -107.26,-101.61 -143.95,-172.18 -36.69,-67.74 -56.45,-152.42 -56.45,-251.21 0,-121.37 28.23,-225.81 81.86,-313.31 53.63,-87.5 127.02,-158.06 225.8,-211.69 98.79,-50.81 211.69,-79.03 338.71,-84.68 166.53,0 304.84,19.76 409.27,59.28 104.44,39.52 197.58,87.5 279.44,141.13l-155.24 313.31z" />
    </g>
</svg>